<?xml version="1.0" encoding="utf-8"?>
<!-- Generator: Adobe Illustrator 17.1.0, SVG Export Plug-In . SVG Version: 6.00 Build 0)  -->
<!DOCTYPE svg PUBLIC "-//W3C//DTD SVG 1.1//EN" "http://www.w3.org/Graphics/SVG/1.1/DTD/svg11.dtd">
<svg version="1.1" id="Artwork" xmlns="http://www.w3.org/2000/svg" xmlns:xlink="http://www.w3.org/1999/xlink" x="0px" y="0px"
	 viewBox="258.141 190.752 383.719 318.496" enable-background="new 258.141 190.752 383.719 318.496" xml:space="preserve">
<g display="none">
	<g display="inline">
		<path d="M151.181,421.137h-10.47c-0.804,0-1.389-0.659-1.389-1.389v-7.981c0-0.733,0.585-1.389,1.389-1.389h32.504
			c0.804,0,1.389,0.659,1.389,1.389v7.981c0,0.733-0.585,1.389-1.389,1.389h-10.47v39.093c0,0.733-0.659,1.393-1.393,1.393h-8.785
			c-0.733,0-1.393-0.659-1.393-1.393v-39.093H151.181z"/>
		<path d="M182.296,411.767c0-0.733,0.659-1.389,1.389-1.389h8.711c0.804,0,1.393,0.659,1.393,1.389v18.448h20.937v-18.448
			c0-0.733,0.585-1.389,1.393-1.389h8.711c0.733,0,1.393,0.659,1.393,1.389v48.463c0,0.733-0.659,1.393-1.393,1.393h-8.711
			c-0.804,0-1.393-0.659-1.393-1.393v-19.252h-20.937v19.252c0,0.733-0.585,1.393-1.393,1.393h-8.711
			c-0.733,0-1.389-0.659-1.389-1.393C182.296,460.23,182.296,411.767,182.296,411.767z"/>
		<path d="M237.785,411.767c0-0.733,0.585-1.389,1.389-1.389h30.307c0.804,0,1.393,0.659,1.393,1.389v7.981
			c0,0.733-0.585,1.389-1.393,1.389h-20.278v9.078h16.693c0.733,0,1.389,0.659,1.389,1.389v7.981c0,0.804-0.659,1.389-1.389,1.389
			h-16.693v9.881h20.278c0.804,0,1.393,0.659,1.393,1.393v7.978c0,0.733-0.585,1.393-1.393,1.393h-30.307
			c-0.804,0-1.389-0.659-1.389-1.393V411.767z"/>
		<path d="M321.167,409.641c7.322,0,12.737,2.27,17.715,6.807c0.659,0.585,0.659,1.463,0.074,2.048l-5.711,5.93
			c-0.511,0.511-1.319,0.511-1.83,0c-3-2.637-6.296-3.733-9.885-3.733c-8.274,0-14.348,6.881-14.348,15.081
			c0,8.126,6.148,14.859,14.422,14.859c4.026,0,7.174-1.244,9.811-3.515c0.511-0.437,1.463-0.437,1.904,0.074l5.711,6.078
			c0.511,0.511,0.437,1.463-0.074,1.978c-4.978,4.833-11.274,7.1-17.789,7.1c-14.641,0-26.43-11.641-26.43-26.281
			C294.737,421.43,306.522,409.641,321.167,409.641z"/>
		<path d="M341.589,459.715l22.915-49.27c0.219-0.441,0.733-0.807,1.244-0.807h0.733c0.511,0,1.026,0.367,1.244,0.807l22.915,49.27
			c0.437,0.952-0.148,1.904-1.244,1.904h-8.126c-1.319,0-1.904-0.441-2.563-1.83l-2.637-5.785h-19.911l-2.637,5.856
			c-0.367,0.878-1.17,1.756-2.637,1.756h-8.052C341.733,461.619,341.148,460.667,341.589,459.715z M371.678,444.052l-5.563-12.078
			h-0.074l-5.489,12.078H371.678z"/>
		<path d="M396.348,410.959c0-0.733,0.659-1.319,1.389-1.319h1.1c0.733,0,1.244,0.511,1.83,1.1l28.111,27.015h0.074v-25.989
			c0-0.733,0.585-1.389,1.393-1.389h8.785c0.733,0,1.393,0.659,1.393,1.389v49.27c0,0.878-0.659,1.319-1.393,1.319h-0.733
			c-0.733,0-1.244-0.219-1.83-0.804l-28.478-28.622h-0.074v27.307c0,0.733-0.585,1.393-1.393,1.393h-8.711
			c-0.733,0-1.389-0.659-1.389-1.393L396.348,410.959z"/>
		<path d="M451.982,411.767c0-0.733,0.659-1.389,1.389-1.389h8.785c0.733,0,1.389,0.659,1.389,1.389v48.463
			c0,0.733-0.659,1.393-1.389,1.393h-8.785c-0.733,0-1.389-0.659-1.389-1.393V411.767z"/>
		<path d="M475.041,410.959c0-0.733,0.659-1.319,1.389-1.319h1.1c0.733,0,1.244,0.511,1.83,1.1l28.111,27.015h0.074v-25.989
			c0-0.733,0.585-1.389,1.389-1.389h8.785c0.733,0,1.393,0.659,1.393,1.389v49.27c0,0.878-0.659,1.319-1.393,1.319h-0.73
			c-0.733,0-1.244-0.219-1.83-0.804l-28.478-28.622h-0.074v27.307c0,0.733-0.585,1.393-1.393,1.393h-8.711
			c-0.733,0-1.389-0.659-1.389-1.393L475.041,410.959z"/>
		<path d="M530.678,411.767c0-0.733,0.585-1.389,1.389-1.389h30.307c0.807,0,1.393,0.659,1.393,1.389v7.981
			c0,0.733-0.585,1.389-1.393,1.389h-20.278v9.078h16.693c0.733,0,1.389,0.659,1.389,1.389v7.981c0,0.804-0.659,1.389-1.389,1.389
			h-16.693v9.881h20.278c0.807,0,1.393,0.659,1.393,1.393v7.978c0,0.733-0.585,1.393-1.393,1.393h-30.307
			c-0.804,0-1.389-0.659-1.389-1.393V411.767z"/>
		<path d="M590.559,411.767c0-0.733,0.585-1.389,1.389-1.389h8.711c0.733,0,1.393,0.659,1.393,1.389v39.093h17.422
			c0.807,0,1.389,0.659,1.389,1.393v7.978c0,0.733-0.585,1.393-1.389,1.393h-27.526c-0.807,0-1.389-0.659-1.389-1.393V411.767z"/>
		<path d="M627.893,411.767c0-0.733,0.659-1.389,1.389-1.389h8.785c0.73,0,1.389,0.659,1.389,1.389v48.463
			c0,0.733-0.659,1.393-1.389,1.393h-8.785c-0.73,0-1.389-0.659-1.389-1.393V411.767z"/>
		<path d="M650.952,410.959c0-0.733,0.659-1.319,1.389-1.319h1.1c0.73,0,1.244,0.511,1.83,1.1l28.111,27.015h0.074v-25.989
			c0-0.733,0.585-1.389,1.389-1.389h8.785c0.733,0,1.393,0.659,1.393,1.389v49.27c0,0.878-0.659,1.319-1.393,1.319h-0.73
			c-0.733,0-1.244-0.219-1.83-0.804l-28.478-28.622h-0.074v27.307c0,0.733-0.585,1.393-1.389,1.393h-8.711
			c-0.73,0-1.389-0.659-1.389-1.393L650.952,410.959z"/>
		<path d="M706.589,411.767c0-0.733,0.585-1.389,1.389-1.389h30.307c0.807,0,1.393,0.659,1.393,1.389v7.981
			c0,0.733-0.585,1.389-1.393,1.389h-20.278v9.078H734.7c0.733,0,1.389,0.659,1.389,1.389v7.981c0,0.804-0.659,1.389-1.389,1.389
			h-16.693v9.881h20.278c0.807,0,1.393,0.659,1.393,1.393v7.978c0,0.733-0.585,1.393-1.393,1.393h-30.307
			c-0.804,0-1.389-0.659-1.389-1.393V411.767z"/>
	</g>
	<g display="inline">
		<path d="M755.904,420.659c-2.637,0-4.774-2.137-4.774-4.774c0-2.626,2.137-4.759,4.774-4.759c2.637,0,4.774,2.137,4.774,4.759
			C760.678,418.522,758.541,420.659,755.904,420.659z M755.904,412.007c-2.111,0-3.826,1.741-3.826,3.878
			c0,2.148,1.715,3.889,3.826,3.889s3.826-1.741,3.826-3.889C759.726,413.748,758.015,412.007,755.904,412.007z M758.319,418.404
			h-1.133l-0.948-1.833h-1.278v1.819h-0.989v-5.248h2.518c1.107,0,1.807,0.674,1.807,1.715c0,0.752-0.433,1.359-1.096,1.596
			L758.319,418.404z M756.496,415.663c0.407,0,0.818-0.211,0.818-0.804c0-0.593-0.315-0.804-0.818-0.804h-1.544v1.607
			L756.496,415.663L756.496,415.663z"/>
	</g>
</g>
<g>
	<g>
		<path d="M588.007,349.47v-18.689c19.389,0,35.163-15.774,35.163-35.163v-26.293c0-32.756-26.759-59.619-59.652-59.885H336.407
			c-32.815,0.267-59.578,27.13-59.578,59.885v26.293c0,19.389,15.774,35.163,35.163,35.163v18.689
			c-29.693,0-53.852-24.159-53.852-53.852v-26.293c0-42.978,35.074-78.222,78.189-78.574h227.263
			c43.189,0.348,78.267,35.596,78.267,78.574v26.293C641.859,325.311,617.7,349.47,588.007,349.47z"/>
	</g>
	<g>
		<path d="M483.296,475.019l-4.107-18.23c27.263-6.141,52.026-21.563,69.722-43.426c17.952-22.174,27.837-50.13,27.837-78.719
			c0-69.037-56.167-125.204-125.204-125.204s-125.2,56.163-125.2,125.204c0,58.448,39.678,108.574,96.496,121.9l-4.267,18.193
			c-31.059-7.285-59.219-25.074-79.296-50.089c-20.389-25.404-31.619-57.367-31.619-90.004c0-79.341,64.548-143.893,143.893-143.893
			S595.444,255.3,595.444,334.644c0,32.856-11.363,64.989-32,90.478C543.107,450.237,514.644,467.956,483.296,475.019z"/>
	</g>
	<g>
		<path d="M459.874,509.248h-17.807c-16.937,0-30.711-13.778-30.711-30.711v-50.696h18.689v50.696
			c0,6.63,5.396,12.026,12.026,12.026h17.807c6.63,0,12.026-5.396,12.026-12.026v-50.696h18.689v50.696
			C490.585,495.47,476.811,509.248,459.874,509.248z"/>
	</g>
	<g>
		<path d="M534.03,447.444h-18.689c0-32.422-26.378-58.8-58.8-58.8v-18.689C499.267,369.956,534.03,404.715,534.03,447.444z"/>
	</g>
	<g>
		<path d="M450.97,445.089c-18.041,0-36.081-6.867-49.819-20.604l13.211-13.215c20.181,20.181,53.026,20.185,73.211,0l13.211,13.215
			C487.056,438.219,469.015,445.089,450.97,445.089z"/>
	</g>
	<g>
		<path d="M386.007,447.444h-18.689c0-42.73,34.763-77.489,77.489-77.489v18.689C412.385,388.641,386.007,415.022,386.007,447.444z"
			/>
	</g>
	<g>
		<path d="M473.378,351.5c-6.148-6.148-14.315-9.533-22.993-9.533s-16.844,3.385-22.993,9.533l-13.211-13.215
			c9.674-9.678,22.537-15.007,36.207-15.007c13.67,0,26.53,5.33,36.207,15.007L473.378,351.5z"/>
	</g>
	<g>
		<rect x="441.041" y="336.526" width="18.689" height="52.167"/>
	</g>
	<g>
		<ellipse cx="507.852" cy="293.059" rx="18.181" ry="23.756"/>
	</g>
	<g>
		<ellipse cx="389.019" cy="293.059" rx="18.181" ry="23.756"/>
	</g>
</g>
</svg>
